<svg width="800" height="800" viewBox="0 0 800 800" xmlns="http://www.w3.org/2000/svg" role="img" aria-label="Stiliseret Danmarkskort">
  <defs>
    <linearGradient id="coast" x1="0%" y1="0%" x2="100%" y2="100%">
      <stop offset="0%" stop-color="#e0f2fe" />
      <stop offset="100%" stop-color="#bfdbfe" />
    </linearGradient>
  </defs>
  <rect width="800" height="800" fill="url(#coast)" />
  <g fill="#d1fae5" stroke="#0f172a" stroke-width="6" opacity="0.95">
    <path d="M330 120 C360 110 410 105 450 120 C490 135 520 180 530 220 C545 280 520 330 490 380 C470 415 435 445 410 470 C375 505 330 540 300 520 C260 495 250 430 245 370 C240 310 245 230 280 180 C300 150 305 130 330 120 Z" />
    <path d="M500 410 C540 390 590 380 620 400 C650 420 650 460 645 500 C640 535 630 575 590 590 C550 610 485 610 470 570 C455 520 460 450 500 410 Z" />
    <path d="M210 340 C230 320 260 320 280 340 C300 360 300 395 295 430 C290 465 280 505 250 510 C215 515 190 470 190 430 C190 400 195 360 210 340 Z" />
    <path d="M365 570 C390 555 420 550 440 565 C470 585 480 640 460 665 C440 690 395 695 365 680 C340 665 325 635 330 605 C335 590 345 580 365 570 Z" />
    <path d="M600 250 C625 240 660 245 680 265 C705 290 705 335 690 360 C670 400 620 420 585 400 C550 385 535 345 550 305 C560 280 575 260 600 250 Z" />
  </g>
  <g stroke="#0f172a" stroke-width="2" opacity="0.45">
    <path d="M120 700 Q200 650 260 660 T400 640 T540 660 T680 640" fill="none" />
    <path d="M150 180 Q210 160 260 190 T350 210 T430 180 T520 210" fill="none" />
    <circle cx="520" cy="200" r="10" fill="#2563eb" />
    <circle cx="450" cy="480" r="10" fill="#2563eb" />
    <circle cx="330" cy="310" r="10" fill="#2563eb" />
  </g>
</svg>
