<svg width="640" height="480" viewBox="0 0 640 480" xmlns="http://www.w3.org/2000/svg" role="img" aria-label="Eksempel på satellitfoto">
  <defs>
    <linearGradient id="field" x1="0%" y1="0%" x2="100%" y2="0%">
      <stop offset="0%" stop-color="#cddc39" />
      <stop offset="50%" stop-color="#9ccc65" />
      <stop offset="100%" stop-color="#7cb342" />
    </linearGradient>
    <pattern id="roads" x="0" y="0" width="20" height="20" patternUnits="userSpaceOnUse" patternTransform="rotate(12 10 10)">
      <rect x="0" y="9" width="20" height="2" fill="#c7c7c7" />
      <rect x="9" y="0" width="2" height="20" fill="#c7c7c7" />
    </pattern>
    <pattern id="water" x="0" y="0" width="10" height="10" patternUnits="userSpaceOnUse">
      <rect width="10" height="10" fill="#5dade2" />
      <path d="M0 3 Q2.5 5 5 3 T10 3 V6 Q7.5 4 5 6 T0 6 Z" fill="#85c1e9" opacity="0.6" />
    </pattern>
  </defs>
  <rect width="640" height="480" fill="#8bc34a" />
  <rect x="20" y="20" width="600" height="440" fill="url(#field)" />
  <rect x="120" y="90" width="160" height="110" fill="#66bb6a" stroke="#4caf50" stroke-width="4" />
  <rect x="180" y="80" width="110" height="230" fill="#7cb342" stroke="#558b2f" stroke-width="3" opacity="0.9" />
  <rect x="310" y="160" width="190" height="140" fill="url(#water)" stroke="#2979ff" stroke-width="4" />
  <rect x="360" y="200" width="130" height="70" fill="#64b5f6" opacity="0.8" />
  <rect x="40" y="40" width="560" height="400" fill="url(#roads)" opacity="0.35" />
  <path d="M60 340 C160 320 240 340 340 330 S520 310 560 330" fill="none" stroke="#fdd835" stroke-width="8" opacity="0.6" />
  <path d="M80 200 C200 210 240 190 280 200 S360 230 420 200" fill="none" stroke="#ff9800" stroke-width="5" opacity="0.8" />
  <circle cx="250" cy="220" r="18" fill="#ffeb3b" stroke="#f57f17" stroke-width="4" opacity="0.9" />
  <circle cx="430" cy="260" r="14" fill="#ffeb3b" stroke="#f57f17" stroke-width="4" opacity="0.9" />
  <rect x="150" y="300" width="120" height="90" fill="#a5d6a7" stroke="#558b2f" stroke-width="4" />
  <rect x="310" y="320" width="190" height="80" fill="#9ccc65" stroke="#689f38" stroke-width="3" opacity="0.9" />
  <path d="M0 0 L640 0 L640 480 L0 480 Z" fill="none" stroke="#2e7d32" stroke-width="8" />
</svg>
